<?xml version="1.0" encoding="UTF-8"?><svg id="Layer_2" xmlns="http://www.w3.org/2000/svg" viewBox="0 0 67.93 67.93"><defs><style>.cls-1{fill:#222221;}</style></defs><g id="Layer_1-2"><g><path class="cls-1" d="M44.38,31.3c-1.18,0-2.09,.34-2.74,1-.65,.67-1.06,1.58-1.22,2.72h7.92c-.08-1.22-.49-2.15-1.23-2.78-.73-.63-1.64-.95-2.73-.95Z"/><path class="cls-1" d="M27.86,30.56c.64-.39,.97-1.09,.97-2.09,0-1.11-.43-1.84-1.28-2.19-.73-.25-1.67-.37-2.81-.37h-5.17v5.24h5.78c1.03,0,1.87-.2,2.52-.59Z"/><path class="cls-1" d="M27.79,35.49c-.56-.26-1.35-.39-2.38-.4h-5.85v6.34h5.78c1.03,0,1.83-.14,2.41-.42,1.04-.52,1.56-1.51,1.56-2.97,0-1.24-.51-2.09-1.51-2.55Z"/><path class="cls-1" d="M33.97,0h0C15.21,0,0,15.21,0,33.97H0c0,18.76,15.21,33.97,33.97,33.97h0c18.76,0,33.97-15.21,33.97-33.97h0C67.93,15.21,52.73,0,33.97,0Zm4.95,23.14h10.34v2.4h-10.34v-2.4Zm-5.65,19.03c-.45,.74-1.01,1.37-1.68,1.87-.76,.58-1.66,.98-2.69,1.19-1.03,.22-2.15,.32-3.36,.32H14.82V21.78h11.5c2.9,.04,4.95,.89,6.16,2.53,.73,1.01,1.09,2.22,1.09,3.63s-.37,2.62-1.1,3.5c-.41,.5-1.02,.95-1.81,1.35,1.21,.44,2.13,1.14,2.75,2.1,.62,.96,.93,2.12,.93,3.48s-.35,2.67-1.06,3.79Zm19.84-4.12h-12.81c.07,1.77,.68,3,1.84,3.71,.7,.44,1.55,.66,2.53,.66,1.05,0,1.9-.27,2.55-.81,.36-.29,.67-.69,.95-1.21h4.7c-.12,1.04-.69,2.1-1.71,3.18-1.57,1.71-3.78,2.57-6.62,2.57-2.34,0-4.41-.72-6.19-2.16-1.79-1.44-2.68-3.79-2.68-7.04,0-3.05,.81-5.38,2.42-7.01,1.62-1.63,3.71-2.44,6.29-2.44,1.53,0,2.91,.27,4.14,.82,1.23,.55,2.24,1.42,3.04,2.6,.72,1.04,1.19,2.26,1.4,3.64,.12,.81,.17,1.97,.15,3.49Z"/></g></g></svg>