<?xml version="1.0" encoding="UTF-8"?><svg id="Layer_2" xmlns="http://www.w3.org/2000/svg" viewBox="0 0 67.93 67.93"><defs><style>.cls-1{fill:#222221;}</style></defs><g id="Layer_1-2"><g transform="translate(1.4065934065934016 1.4065934065934016) scale(2.81 2.81)"><path class="cls-1" d="M33.97,0C15.21,0,0,15.45,0,34.51c0,16.09,10.84,29.61,25.51,33.43,0-3.99-.02-8.88-.03-10.4-9.8,2.17-11.87-4.22-11.87-4.22-1.6-4.14-3.91-5.24-3.91-5.24-3.2-2.22,.24-2.18,.24-2.18,3.54,.25,5.4,3.69,5.4,3.69,3.14,5.47,8.24,3.89,10.25,2.98,.32-2.31,1.23-3.89,2.24-4.79-7.83-.91-16.05-3.97-16.05-17.69,0-3.91,1.38-7.1,3.63-9.61-.37-.9-1.57-4.54,.34-9.47,0,0,2.96-.96,9.69,3.67,2.81-.79,5.82-1.19,8.82-1.2,2.99,.01,6.01,.41,8.83,1.2,6.73-4.63,9.68-3.67,9.68-3.67,1.92,4.93,.71,8.57,.35,9.47,2.26,2.51,3.63,5.7,3.63,9.61,0,13.75-8.24,16.77-16.09,17.66,1.26,1.11,2.39,3.29,2.39,6.63,0,2.65-.01,8.76-.02,13.39,14.36-4.03,24.91-17.39,24.91-33.26C67.93,15.45,52.73,0,33.97,0Z"/></g></g></svg>